<svg width="275" height="113" viewBox="0 0 275 113" fill="none" xmlns="http://www.w3.org/2000/svg">
<rect width="263" height="113" rx="17" fill="#D90429"/>
<path d="M156.526 20.8106C156.505 20.8541 156.437 21.4971 156.377 22.2406C156.318 22.9841 156.26 23.6381 156.255 23.6921C156.24 23.7946 156.44 23.783 159.989 23.4726C162.919 23.2162 163.763 23.1603 163.829 23.208C163.907 23.2727 165.316 26.3406 171.297 39.481C172.852 42.8994 172.975 43.1506 173.666 44.3107C174.38 45.5163 174.451 45.6113 177.536 49.5983C179.261 51.8348 180.736 53.7301 180.806 53.8192L180.934 53.9687L192.197 52.9714L203.455 51.9686L203.681 50.6688C203.806 49.9553 203.897 49.352 203.885 49.3292C203.873 49.3005 198.858 49.7214 192.745 50.2562L181.629 51.2288L179.368 48.2949C178.022 46.5432 177.12 45.3361 177.146 45.2981C177.167 45.2665 178.352 45.0616 179.781 44.8414C181.209 44.6212 182.769 44.3775 183.251 44.2996C183.734 44.2276 185.341 43.9738 186.822 43.7491C188.307 43.5179 190.308 43.2119 191.268 43.0624C193.973 42.6412 199.87 41.7323 202.831 41.2768C204.302 41.0528 205.707 40.8347 205.957 40.789L206.41 40.7136L208.946 32.3293L211.485 23.9386L211.415 23.3494L211.349 22.7598L211.101 22.4004C210.87 22.0574 210.829 22.0253 210.411 21.8476L209.963 21.6605L190.493 23.3639C171.98 24.9836 171.024 25.0732 171.032 25.1677C171.042 25.2264 171.25 25.7917 171.497 26.425L171.948 27.5763L190.491 25.9718C203.721 24.8203 209.055 24.3774 209.102 24.421C209.2 24.5017 208.378 27.2111 208.243 27.2586C208.192 27.275 206.193 27.4916 203.803 27.7364C201.414 27.9811 196.069 28.5261 191.927 28.954C187.784 29.3819 182.197 29.9482 179.503 30.2196C176.814 30.4906 174.392 30.756 174.132 30.7966L173.656 30.88L174.114 32.0604C174.367 32.711 174.603 33.2679 174.634 33.3009C174.681 33.3385 175.49 33.2737 177.428 33.0743C194.134 31.3389 206.204 30.0864 206.823 30.0323C207.331 29.9878 207.452 29.9951 207.458 30.0601C207.462 30.1074 207.283 30.7481 207.06 31.488L206.651 32.8337L206.402 32.8912C206.265 32.921 204.573 33.1345 202.643 33.3748C200.713 33.6092 197.043 34.0672 194.487 34.3861C185.801 35.4794 183.634 35.7464 180.192 36.1785C178.3 36.4154 176.742 36.6292 176.72 36.649C176.703 36.6743 176.902 37.2463 177.161 37.9142L177.637 39.1348L177.999 39.1031C178.194 39.0861 178.967 38.9887 179.711 38.8938C180.454 38.793 184.398 38.2872 188.48 37.7694C192.561 37.2456 197.221 36.6534 198.837 36.4465C206.536 35.4634 205.705 35.5598 205.733 35.6645C205.751 35.7523 204.881 38.2456 204.775 38.4097C204.69 38.5302 175.662 43.0227 175.573 42.9293C175.536 42.8908 175.119 42.0223 174.652 41.0035C174.183 39.9787 172.624 36.5667 171.179 33.4186C169.734 30.2705 168.211 26.9446 167.796 26.0343C167.376 25.1185 166.587 23.3954 166.037 22.1992L165.041 20.0239L160.802 20.377C157.447 20.6586 156.559 20.7541 156.526 20.8106Z" fill="black"/>
<path d="M182.015 56.4104C181.613 56.5825 181.24 56.9188 180.939 57.3679C180.32 58.2913 180.204 59.5457 180.629 60.6755C181.364 62.6116 183.371 63.1981 184.652 61.8417C185.275 61.1858 185.563 60.2616 185.47 59.1981C185.342 57.7328 184.468 56.559 183.314 56.2968C182.942 56.2103 182.347 56.2623 182.015 56.4104Z" fill="black"/>
<path d="M201.622 54.6891C201.207 54.8742 200.833 55.1987 200.536 55.6414C200.078 56.3245 199.916 56.9995 199.998 57.9271C200.038 58.388 200.081 58.6045 200.199 58.9098C200.663 60.167 201.73 60.9608 202.81 60.8663C203.936 60.7618 204.89 59.6662 205.062 58.2819C205.115 57.8545 205.051 57.1159 204.916 56.6693C204.591 55.5844 203.719 54.714 202.804 54.5618C202.454 54.5032 201.913 54.5624 201.622 54.6891Z" fill="black"/>
<path d="M22.43 51V26.5H26.21V51H22.43ZM24.11 40.57V36.93H36.745V40.57H24.11ZM24.11 30.14V26.5H38.32V30.14H24.11ZM49.132 51.35C47.6153 51.35 46.227 50.93 44.967 50.09C43.7303 49.25 42.7387 48.1067 41.992 46.66C41.2453 45.2133 40.872 43.58 40.872 41.76C40.872 39.9167 41.2453 38.2833 41.992 36.86C42.762 35.4133 43.7887 34.2817 45.072 33.465C46.3787 32.6483 47.837 32.24 49.447 32.24C50.4037 32.24 51.2787 32.38 52.072 32.66C52.8653 32.94 53.5537 33.3367 54.137 33.85C54.7437 34.34 55.2337 34.9117 55.607 35.565C56.0037 36.2183 56.2487 36.9183 56.342 37.665L55.537 37.385V32.625H59.177V51H55.537V46.625L56.377 46.38C56.237 47.01 55.9453 47.6283 55.502 48.235C55.082 48.8183 54.5337 49.3433 53.857 49.81C53.2037 50.2767 52.4687 50.65 51.652 50.93C50.8587 51.21 50.0187 51.35 49.132 51.35ZM50.077 48.025C51.1737 48.025 52.142 47.7567 52.982 47.22C53.822 46.6833 54.4753 45.9483 54.942 45.015C55.432 44.0583 55.677 42.9733 55.677 41.76C55.677 40.57 55.432 39.5083 54.942 38.575C54.4753 37.6417 53.822 36.9067 52.982 36.37C52.142 35.8333 51.1737 35.565 50.077 35.565C49.0037 35.565 48.047 35.8333 47.207 36.37C46.3903 36.9067 45.737 37.6417 45.247 38.575C44.7803 39.5083 44.547 40.57 44.547 41.76C44.547 42.9733 44.7803 44.0583 45.247 45.015C45.737 45.9483 46.3903 46.6833 47.207 47.22C48.047 47.7567 49.0037 48.025 50.077 48.025ZM67.5004 45.26L67.3254 41.34L76.1104 32.625H80.9754L67.5004 45.26ZM64.2104 51V25.1H67.8154V51H64.2104ZM76.6004 51L69.6704 42.915L72.2254 40.57L81.2204 51H76.6004ZM91.8919 51.35C90.0019 51.35 88.3219 50.9533 86.8519 50.16C85.4052 49.3433 84.2619 48.235 83.4219 46.835C82.6052 45.435 82.1969 43.825 82.1969 42.005C82.1969 40.5583 82.4302 39.24 82.8969 38.05C83.3635 36.86 84.0052 35.8333 84.8219 34.97C85.6619 34.0833 86.6535 33.4067 87.7969 32.94C88.9635 32.45 90.2235 32.205 91.5769 32.205C92.7669 32.205 93.8752 32.4383 94.9019 32.905C95.9285 33.3483 96.8152 33.9667 97.5619 34.76C98.3319 35.5533 98.9152 36.4983 99.3119 37.595C99.7319 38.6683 99.9302 39.8467 99.9069 41.13L99.8719 42.67H84.8569L84.0519 39.8H96.7569L96.2319 40.395V39.555C96.1619 38.785 95.9052 38.0967 95.4619 37.49C95.0185 36.8833 94.4585 36.405 93.7819 36.055C93.1052 35.705 92.3702 35.53 91.5769 35.53C90.3169 35.53 89.2552 35.775 88.3919 36.265C87.5285 36.7317 86.8752 37.4317 86.4319 38.365C85.9885 39.275 85.7669 40.4067 85.7669 41.76C85.7669 43.0433 86.0352 44.1633 86.5719 45.12C87.1085 46.0533 87.8669 46.7767 88.8469 47.29C89.8269 47.8033 90.9585 48.06 92.2419 48.06C93.1519 48.06 93.9919 47.9083 94.7619 47.605C95.5552 47.3017 96.4069 46.7533 97.3169 45.96L99.1369 48.515C98.5769 49.075 97.8885 49.565 97.0719 49.985C96.2785 50.405 95.4269 50.7433 94.5169 51C93.6302 51.2333 92.7552 51.35 91.8919 51.35ZM22.43 95V70.5H37.865V74.14H26.21V91.36H37.865V95H22.43ZM24.145 84.255V80.615H35.94V84.255H24.145ZM42.354 86.775V83.205H52.434V86.775H42.354ZM64.5984 95.35C62.8951 95.35 61.3668 94.93 60.0134 94.09C58.6834 93.25 57.6218 92.1067 56.8284 90.66C56.0584 89.2133 55.6734 87.5917 55.6734 85.795C55.6734 83.9983 56.0584 82.3767 56.8284 80.93C57.6218 79.4833 58.6834 78.34 60.0134 77.5C61.3668 76.66 62.8951 76.24 64.5984 76.24C66.2318 76.24 67.7134 76.5783 69.0434 77.255C70.3968 77.9083 71.4234 78.8067 72.1234 79.95L70.1284 82.4C69.7551 81.8633 69.2768 81.3733 68.6934 80.93C68.1101 80.4867 67.4918 80.1367 66.8384 79.88C66.1851 79.6233 65.5551 79.495 64.9484 79.495C63.8284 79.495 62.8251 79.775 61.9384 80.335C61.0751 80.8717 60.3868 81.6183 59.8734 82.575C59.3601 83.5317 59.1034 84.605 59.1034 85.795C59.1034 86.985 59.3718 88.0583 59.9084 89.015C60.4451 89.9483 61.1568 90.695 62.0434 91.255C62.9301 91.815 63.9101 92.095 64.9834 92.095C65.6134 92.095 66.2201 91.99 66.8034 91.78C67.4101 91.57 67.9934 91.255 68.5534 90.835C69.1134 90.415 69.6384 89.9017 70.1284 89.295L72.1234 91.745C71.3768 92.795 70.3034 93.6583 68.9034 94.335C67.5268 95.0117 66.0918 95.35 64.5984 95.35ZM83.7839 95.35C81.9872 95.35 80.3772 94.9417 78.9539 94.125C77.5539 93.285 76.4456 92.1533 75.6289 90.73C74.8122 89.2833 74.4039 87.6383 74.4039 85.795C74.4039 83.9517 74.8122 82.3183 75.6289 80.895C76.4456 79.4483 77.5539 78.3167 78.9539 77.5C80.3772 76.66 81.9872 76.24 83.7839 76.24C85.5572 76.24 87.1439 76.66 88.5439 77.5C89.9672 78.3167 91.0872 79.4483 91.9039 80.895C92.7206 82.3183 93.1289 83.9517 93.1289 85.795C93.1289 87.6383 92.7206 89.2833 91.9039 90.73C91.0872 92.1533 89.9672 93.285 88.5439 94.125C87.1439 94.9417 85.5572 95.35 83.7839 95.35ZM83.7839 92.06C84.8806 92.06 85.8606 91.7917 86.7239 91.255C87.5872 90.695 88.2639 89.9483 88.7539 89.015C89.2439 88.0583 89.4772 86.985 89.4539 85.795C89.4772 84.5817 89.2439 83.5083 88.7539 82.575C88.2639 81.6183 87.5872 80.8717 86.7239 80.335C85.8606 79.7983 84.8806 79.53 83.7839 79.53C82.6872 79.53 81.6956 79.81 80.8089 80.37C79.9456 80.9067 79.2689 81.6533 78.7789 82.61C78.2889 83.5433 78.0556 84.605 78.0789 85.795C78.0556 86.985 78.2889 88.0583 78.7789 89.015C79.2689 89.9483 79.9456 90.695 80.8089 91.255C81.6956 91.7917 82.6872 92.06 83.7839 92.06ZM96.9871 95V76.625H100.627V80.545L99.9621 80.965C100.149 80.3583 100.44 79.775 100.837 79.215C101.257 78.655 101.759 78.165 102.342 77.745C102.949 77.3017 103.59 76.9517 104.267 76.695C104.967 76.4383 105.679 76.31 106.402 76.31C107.452 76.31 108.374 76.485 109.167 76.835C109.96 77.185 110.614 77.71 111.127 78.41C111.64 79.11 112.014 79.985 112.247 81.035L111.687 80.895L111.932 80.3C112.189 79.7633 112.539 79.2617 112.982 78.795C113.449 78.305 113.974 77.8733 114.557 77.5C115.14 77.1267 115.759 76.835 116.412 76.625C117.065 76.415 117.707 76.31 118.337 76.31C119.714 76.31 120.845 76.59 121.732 77.15C122.642 77.71 123.319 78.5617 123.762 79.705C124.229 80.8483 124.462 82.2717 124.462 83.975V95H120.822V84.185C120.822 83.135 120.682 82.2833 120.402 81.63C120.145 80.9533 119.749 80.4517 119.212 80.125C118.675 79.7983 117.987 79.635 117.147 79.635C116.494 79.635 115.875 79.7517 115.292 79.985C114.732 80.195 114.242 80.4983 113.822 80.895C113.402 81.2917 113.075 81.7583 112.842 82.295C112.609 82.8083 112.492 83.38 112.492 84.01V95H108.852V84.115C108.852 83.1583 108.712 82.3533 108.432 81.7C108.152 81.0233 107.744 80.51 107.207 80.16C106.67 79.81 106.017 79.635 105.247 79.635C104.594 79.635 103.987 79.7517 103.427 79.985C102.867 80.195 102.377 80.4983 101.957 80.895C101.537 81.2683 101.21 81.7233 100.977 82.26C100.744 82.7733 100.627 83.3333 100.627 83.94V95H96.9871ZM129.219 95V76.625H132.859V80.545L132.194 80.965C132.38 80.3583 132.672 79.775 133.069 79.215C133.489 78.655 133.99 78.165 134.574 77.745C135.18 77.3017 135.822 76.9517 136.499 76.695C137.199 76.4383 137.91 76.31 138.634 76.31C139.684 76.31 140.605 76.485 141.399 76.835C142.192 77.185 142.845 77.71 143.359 78.41C143.872 79.11 144.245 79.985 144.479 81.035L143.919 80.895L144.164 80.3C144.42 79.7633 144.77 79.2617 145.214 78.795C145.68 78.305 146.205 77.8733 146.789 77.5C147.372 77.1267 147.99 76.835 148.644 76.625C149.297 76.415 149.939 76.31 150.569 76.31C151.945 76.31 153.077 76.59 153.964 77.15C154.874 77.71 155.55 78.5617 155.994 79.705C156.46 80.8483 156.694 82.2717 156.694 83.975V95H153.054V84.185C153.054 83.135 152.914 82.2833 152.634 81.63C152.377 80.9533 151.98 80.4517 151.444 80.125C150.907 79.7983 150.219 79.635 149.379 79.635C148.725 79.635 148.107 79.7517 147.524 79.985C146.964 80.195 146.474 80.4983 146.054 80.895C145.634 81.2917 145.307 81.7583 145.074 82.295C144.84 82.8083 144.724 83.38 144.724 84.01V95H141.084V84.115C141.084 83.1583 140.944 82.3533 140.664 81.7C140.384 81.0233 139.975 80.51 139.439 80.16C138.902 79.81 138.249 79.635 137.479 79.635C136.825 79.635 136.219 79.7517 135.659 79.985C135.099 80.195 134.609 80.4983 134.189 80.895C133.769 81.2683 133.442 81.7233 133.209 82.26C132.975 82.7733 132.859 83.3333 132.859 83.94V95H129.219ZM170.095 95.35C168.205 95.35 166.525 94.9533 165.055 94.16C163.608 93.3433 162.465 92.235 161.625 90.835C160.808 89.435 160.4 87.825 160.4 86.005C160.4 84.5583 160.633 83.24 161.1 82.05C161.567 80.86 162.208 79.8333 163.025 78.97C163.865 78.0833 164.857 77.4067 166 76.94C167.167 76.45 168.427 76.205 169.78 76.205C170.97 76.205 172.078 76.4383 173.105 76.905C174.132 77.3483 175.018 77.9667 175.765 78.76C176.535 79.5533 177.118 80.4983 177.515 81.595C177.935 82.6683 178.133 83.8467 178.11 85.13L178.075 86.67H163.06L162.255 83.8H174.96L174.435 84.395V83.555C174.365 82.785 174.108 82.0967 173.665 81.49C173.222 80.8833 172.662 80.405 171.985 80.055C171.308 79.705 170.573 79.53 169.78 79.53C168.52 79.53 167.458 79.775 166.595 80.265C165.732 80.7317 165.078 81.4317 164.635 82.365C164.192 83.275 163.97 84.4067 163.97 85.76C163.97 87.0433 164.238 88.1633 164.775 89.12C165.312 90.0533 166.07 90.7767 167.05 91.29C168.03 91.8033 169.162 92.06 170.445 92.06C171.355 92.06 172.195 91.9083 172.965 91.605C173.758 91.3017 174.61 90.7533 175.52 89.96L177.34 92.515C176.78 93.075 176.092 93.565 175.275 93.985C174.482 94.405 173.63 94.7433 172.72 95C171.833 95.2333 170.958 95.35 170.095 95.35ZM182.028 95V76.625H185.668V82.4L185.318 81C185.574 80.1133 186.006 79.3083 186.613 78.585C187.243 77.8617 187.954 77.29 188.748 76.87C189.564 76.45 190.404 76.24 191.268 76.24C191.664 76.24 192.038 76.275 192.388 76.345C192.761 76.415 193.053 76.4967 193.263 76.59L192.318 80.51C192.038 80.3933 191.723 80.3 191.373 80.23C191.046 80.1367 190.719 80.09 190.393 80.09C189.763 80.09 189.156 80.2183 188.573 80.475C188.013 80.7083 187.511 81.0467 187.068 81.49C186.648 81.91 186.309 82.4117 186.053 82.995C185.796 83.555 185.668 84.1733 185.668 84.85V95H182.028ZM203.163 95.35C201.46 95.35 199.931 94.93 198.578 94.09C197.248 93.25 196.186 92.1067 195.393 90.66C194.623 89.2133 194.238 87.5917 194.238 85.795C194.238 83.9983 194.623 82.3767 195.393 80.93C196.186 79.4833 197.248 78.34 198.578 77.5C199.931 76.66 201.46 76.24 203.163 76.24C204.796 76.24 206.278 76.5783 207.608 77.255C208.961 77.9083 209.988 78.8067 210.688 79.95L208.693 82.4C208.32 81.8633 207.841 81.3733 207.258 80.93C206.675 80.4867 206.056 80.1367 205.403 79.88C204.75 79.6233 204.12 79.495 203.513 79.495C202.393 79.495 201.39 79.775 200.503 80.335C199.64 80.8717 198.951 81.6183 198.438 82.575C197.925 83.5317 197.668 84.605 197.668 85.795C197.668 86.985 197.936 88.0583 198.473 89.015C199.01 89.9483 199.721 90.695 200.608 91.255C201.495 91.815 202.475 92.095 203.548 92.095C204.178 92.095 204.785 91.99 205.368 91.78C205.975 91.57 206.558 91.255 207.118 90.835C207.678 90.415 208.203 89.9017 208.693 89.295L210.688 91.745C209.941 92.795 208.868 93.6583 207.468 94.335C206.091 95.0117 204.656 95.35 203.163 95.35ZM222.663 95.35C220.773 95.35 219.093 94.9533 217.623 94.16C216.177 93.3433 215.033 92.235 214.193 90.835C213.377 89.435 212.968 87.825 212.968 86.005C212.968 84.5583 213.202 83.24 213.668 82.05C214.135 80.86 214.777 79.8333 215.593 78.97C216.433 78.0833 217.425 77.4067 218.568 76.94C219.735 76.45 220.995 76.205 222.348 76.205C223.538 76.205 224.647 76.4383 225.673 76.905C226.7 77.3483 227.587 77.9667 228.333 78.76C229.103 79.5533 229.687 80.4983 230.083 81.595C230.503 82.6683 230.702 83.8467 230.678 85.13L230.643 86.67H215.628L214.823 83.8H227.528L227.003 84.395V83.555C226.933 82.785 226.677 82.0967 226.233 81.49C225.79 80.8833 225.23 80.405 224.553 80.055C223.877 79.705 223.142 79.53 222.348 79.53C221.088 79.53 220.027 79.775 219.163 80.265C218.3 80.7317 217.647 81.4317 217.203 82.365C216.76 83.275 216.538 84.4067 216.538 85.76C216.538 87.0433 216.807 88.1633 217.343 89.12C217.88 90.0533 218.638 90.7767 219.618 91.29C220.598 91.8033 221.73 92.06 223.013 92.06C223.923 92.06 224.763 91.9083 225.533 91.605C226.327 91.3017 227.178 90.7533 228.088 89.96L229.908 92.515C229.348 93.075 228.66 93.565 227.843 93.985C227.05 94.405 226.198 94.7433 225.288 95C224.402 95.2333 223.527 95.35 222.663 95.35Z" fill="#EDF2F4"/>
</svg>
